<?xml version="1.0" encoding="utf-8"?>
<!-- Generator: Adobe Illustrator 24.3.0, SVG Export Plug-In . SVG Version: 6.00 Build 0)  -->
<svg version="1.1" id="Layer_1" xmlns="http://www.w3.org/2000/svg" xmlns:xlink="http://www.w3.org/1999/xlink" x="0px" y="0px"
	 viewBox="0 0 120 120" enable-background="new 0 0 120 120" xml:space="preserve">
<path fill="#FBCF26" d="M63.667,46.836h-8.335c-1.289,0-2.448,0.787-2.925,1.985l0,0h14.48l-0.067-0.122
	C66.187,47.549,64.979,46.836,63.667,46.836z"/>
<path fill="#FBCF26" d="M58.813,63.738c3.588,0.006,6.494,2.912,6.5,6.5c-0.006,3.588-2.912,6.494-6.5,6.5
	c-3.588-0.006-6.494-2.912-6.5-6.5v-0.018c0,0,0.853,0.149,1.24,0.148c2.977,0,5.39-2.413,5.392-5.392
	C58.945,64.548,58.813,63.738,58.813,63.738"/>
<path fill="#FBCF26" d="M82.48,55.239H62.031c7.07,1.385,12.406,7.608,12.408,15.083c-0.001,3.554-1.216,6.817-3.244,9.417H82.48
	V55.239z"/>
<path fill="#FBCF26" d="M36.48,79.739h10.451c-2.028-2.6-3.243-5.863-3.244-9.417c0.002-7.475,5.338-13.698,12.408-15.083H36.48
	V79.739z"/>
<g>
	<path fill="none" d="M58.813,76.738c3.588-0.006,6.494-2.912,6.5-6.5c-0.006-3.588-2.912-6.494-6.5-6.5h-0.017
		c0.097,0.396,0.148,0.81,0.148,1.238c-0.002,2.98-2.415,5.392-5.392,5.392c-0.429,0.001-0.844-0.052-1.24-0.148v0.018
		C52.319,73.825,55.225,76.731,58.813,76.738z"/>
	<path fill="none" d="M63.654,46.836h-8.015c-1.413,0.003-2.624,0.812-3.232,1.985h14.48C66.278,47.648,65.066,46.839,63.654,46.836
		z"/>
	<path fill="none" d="M59.063,82.696c6.833-0.011,12.363-5.541,12.374-12.374c-0.011-6.832-5.541-12.363-12.374-12.375
		c-6.832,0.013-12.363,5.543-12.376,12.375C46.7,77.154,52.231,82.685,59.063,82.696z M49.694,67.585l0.624-2.152l1.754,1.399
		c0.432,0.342,0.927,0.535,1.481,0.535c1.319-0.002,2.388-1.07,2.392-2.392c-0.002-0.552-0.195-1.049-0.537-1.479l-1.397-1.75
		l2.152-0.627c0.835-0.244,1.725-0.382,2.65-0.382c5.247,0.002,9.498,4.253,9.5,9.5c-0.002,5.248-4.253,9.499-9.5,9.501
		c-5.248-0.002-9.498-4.253-9.498-9.501C49.312,69.31,49.453,68.421,49.694,67.585z"/>
	<path fill="none" d="M32.813,51.822v31.499h18.067c-1.517-0.957-2.85-2.174-3.949-3.583H36.48v-24.5h19.615
		c0.961-0.188,1.952-0.293,2.968-0.293c1.016,0,2.007,0.105,2.968,0.293H82.48v24.5H71.195c-1.099,1.409-2.433,2.626-3.949,3.583
		h19.068L86.311,51.82L32.813,51.822z"/>
	<path fill="#1A2559" d="M70.092,48.821c-0.744-2.866-3.34-4.983-6.438-4.983h-8.015c-3.099,0-5.694,2.118-6.438,4.983H29.813v37.5
		h59.5v-37.5H70.092z M55.639,46.836h8.015c1.412,0.003,2.624,0.812,3.233,1.985h-14.48C53.015,47.648,54.226,46.839,55.639,46.836z
		 M46.687,70.322c0.013-6.832,5.544-12.363,12.376-12.375c6.833,0.013,12.363,5.543,12.374,12.375
		c-0.011,6.833-5.541,12.363-12.374,12.374C52.231,82.685,46.7,77.154,46.687,70.322z M67.246,83.322
		c1.517-0.957,2.85-2.174,3.949-3.583c2.028-2.6,3.243-5.863,3.244-9.417c-0.002-7.475-5.338-13.698-12.408-15.083
		c-0.961-0.188-1.952-0.293-2.968-0.293c-1.016,0-2.007,0.105-2.968,0.293c-7.07,1.385-12.406,7.608-12.408,15.083
		c0.001,3.554,1.216,6.817,3.244,9.417c1.099,1.409,2.432,2.626,3.949,3.583H32.813V51.822l53.498-0.002l0.003,31.501H67.246z"/>
	<path fill="#1A2559" d="M58.813,79.738c5.247-0.002,9.498-4.253,9.5-9.501c-0.002-5.248-4.253-9.499-9.5-9.5
		c-0.926,0-1.816,0.138-2.65,0.382l-2.152,0.627l1.397,1.75c0.342,0.43,0.535,0.928,0.537,1.479
		c-0.004,1.322-1.072,2.39-2.392,2.392c-0.555,0-1.05-0.193-1.481-0.535l-1.754-1.399l-0.624,2.152
		c-0.241,0.836-0.382,1.725-0.379,2.652C49.315,75.485,53.565,79.736,58.813,79.738z M52.313,70.219
		c0.396,0.096,0.812,0.149,1.24,0.148c2.977,0,5.39-2.413,5.392-5.392c0-0.428-0.052-0.842-0.148-1.238h0.017
		c3.588,0.006,6.494,2.912,6.5,6.5c-0.006,3.588-2.912,6.494-6.5,6.5c-3.588-0.006-6.494-2.912-6.5-6.5V70.219z"/>
</g>
<path fill="#FBCF26" d="M83.479,45.155h-8.332c-0.828,0-1.499,0.673-1.499,1.501c0,0.828,0.671,1.499,1.499,1.499h8.332
	c0.828,0,1.501-0.671,1.501-1.499C84.98,45.828,84.307,45.155,83.479,45.155z M37.306,41.106c-0.693,0.385-0.944,1.26-0.56,1.955
	c0.385,0.694,1.26,0.945,1.955,0.561c0.693-0.385,0.945-1.26,0.561-1.955C38.877,40.972,38.002,40.72,37.306,41.106z M37.291,38.353
	c0.699,0.377,1.57,0.116,1.947-0.583c0.377-0.699,0.115-1.571-0.584-1.947c-0.698-0.376-1.57-0.115-1.947,0.583
	C36.331,37.104,36.592,37.976,37.291,38.353z M42.814,43.76c-0.794,0-1.438,0.644-1.438,1.438c0,0.794,0.644,1.438,1.438,1.438
	c0.794,0,1.438-0.644,1.438-1.438C44.252,44.403,43.608,43.76,42.814,43.76z M42.814,32.76c-0.794,0-1.438,0.644-1.438,1.438
	c0,0.794,0.644,1.438,1.438,1.438c0.794,0,1.438-0.644,1.438-1.438C44.252,33.403,43.608,32.76,42.814,32.76z M48.322,38.288
	c0.694-0.385,0.945-1.26,0.56-1.955c-0.385-0.694-1.26-0.945-1.955-0.561c-0.693,0.385-0.945,1.26-0.561,1.955
	C46.752,38.422,47.627,38.674,48.322,38.288z M48.338,41.041c-0.699-0.377-1.57-0.116-1.947,0.583
	c-0.377,0.699-0.115,1.571,0.583,1.948c0.699,0.376,1.571,0.115,1.948-0.583C49.298,42.29,49.037,41.418,48.338,41.041z"/>
</svg>
