<?xml version="1.0" encoding="iso-8859-1"?>
<!-- Generator: Adobe Illustrator 19.0.0, SVG Export Plug-In . SVG Version: 6.00 Build 0)  -->
<svg version="1.1" id="Layer_1" xmlns="http://www.w3.org/2000/svg" xmlns:xlink="http://www.w3.org/1999/xlink" x="0px" y="0px"
	 viewBox="0 0 512 512" style="enable-background:new 0 0 512 512;" xml:space="preserve">
<polygon style="fill:#999999;" points="412.493,279.136 436.116,261.672 503.296,436.426 420.994,436.426 8.598,436.426 
	111.639,257.946 144.249,290.555 164.481,270.323 213.816,279.92 192.476,242.951 219.249,196.58 259.632,232.258 287.201,204.689 
	306.21,237.61 326.466,202.532 347.367,166.324 379.399,221.819 "/>
<g>
	<polygon style="fill:#E6E6E6;" points="250.877,141.789 287.201,204.689 259.632,232.258 219.249,196.58 	"/>
	<polygon style="fill:#E6E6E6;" points="192.476,242.951 213.816,279.92 164.481,270.323 144.249,290.555 111.639,257.946 
		156.383,180.443 173.709,210.434 	"/>
</g>
<polyline style="fill:#808080;" points="144.249,290.555 120.994,436.426 8.598,436.426 111.639,257.946 "/>
<path style="fill:#FED159;" d="M449.785,148.307c0,39.565-31.225,71.839-70.386,73.512l-32.032-55.494l-20.901,36.208
	c-14.649-13.45-23.843-32.759-23.843-54.226c0-40.637,32.944-73.581,73.581-73.581S449.785,107.669,449.785,148.307z"/>
<g>
	<polygon style="fill:#808080;" points="222.485,294.93 266.334,367.77 219.249,196.58 192.476,242.951 	"/>
	<polygon style="fill:#808080;" points="320.442,212.962 367.841,285.872 347.367,166.324 347.367,166.324 	"/>
</g>
<path d="M345.605,314.813c1.467,0,2.956-0.375,4.318-1.16c4.138-2.389,5.555-7.68,3.166-11.818l-9.814-16.998
	c-2.389-4.139-7.682-5.554-11.818-3.166c-4.138,2.389-5.555,7.68-3.166,11.818l9.814,16.998
	C339.708,313.26,342.616,314.813,345.605,314.813z"/>
<path d="M511.424,433.746l-67.179-174.754c-0.969-2.522-3.06-4.446-5.654-5.201c-2.595-0.757-5.391-0.257-7.563,1.348
	l-15.833,11.704l-60.281-104.421c-1.546-2.677-4.402-4.326-7.493-4.326s-5.947,1.649-7.493,4.326l-33.666,58.31l-47.84-82.846
	c-1.546-2.676-4.402-4.326-7.492-4.326c-3.091,0-5.946,1.649-7.492,4.326l-50.906,88.18l-11.277-19.534c0,0-0.001-0.001-0.001-0.002
	v-0.001l-17.325-29.991c-1.546-2.676-4.402-4.324-7.492-4.324c-3.09,0-5.946,1.649-7.491,4.326L1.159,432.525
	c-1.546,2.677-1.546,5.975,0,8.651c1.546,2.676,4.401,4.326,7.492,4.326h77.79c4.778,0,8.651-3.873,8.651-8.651
	c0-4.778-3.873-8.651-8.651-8.651H23.635l89.912-155.74l24.637,24.637c1.689,1.689,3.903,2.534,6.117,2.534s4.428-0.844,6.117-2.534
	l16.979-16.979l40.957,7.967l12.406,21.491c1.602,2.775,4.51,4.326,7.499,4.326c1.468,0,2.956-0.375,4.319-1.162
	c4.138-2.39,5.554-7.681,3.165-11.819l-33.223-57.55l18.982-32.879l32.455,28.673c1.64,1.45,3.685,2.167,5.726,2.167
	c2.22,0,4.435-0.85,6.119-2.534l19.595-19.596l25.792,44.665c1.603,2.775,4.51,4.327,7.5,4.327c1.467,0,2.956-0.375,4.319-1.16
	c4.138-2.389,5.555-7.68,3.166-11.819l-9.922-17.182l31.167-53.981l53.771,93.141l-9.958,7.358
	c-3.843,2.839-4.657,8.257-1.817,12.099c1.697,2.297,4.313,3.51,6.965,3.51c1.786,0,3.587-0.551,5.134-1.694l30.657-22.659
	l58.582,152.39h-64.712l-22.084-38.26c-2.389-4.139-7.681-5.557-11.818-3.169c-4.139,2.389-5.556,7.679-3.169,11.818l17.091,29.611
	H121.047c-4.778,0-8.651,3.873-8.651,8.651c0,4.778,3.873,8.651,8.651,8.651h382.301c2.85,0,5.517-1.404,7.131-3.752
	S512.446,436.406,511.424,433.746z M166.186,262.255c-2.823-0.549-5.735,0.34-7.769,2.375l-14.115,14.115l-21.799-21.799
	l33.936-58.781l9.83,17.015v0.001l18.834,32.624c0.024,0.039,0.045,0.081,0.069,0.12l11.719,20.301L166.186,262.255z
	 M259.319,220.814l-28.99-25.612l20.602-35.687l25.509,44.176L259.319,220.814z"/>
<path d="M312.649,186.741c4.358-1.957,6.304-7.079,4.346-11.437c-3.762-8.372-5.668-17.313-5.668-26.573
	c0-35.803,29.127-64.93,64.93-64.93s64.93,29.127,64.93,64.93c0,25.464-14.997,48.7-38.207,59.195
	c-4.353,1.969-6.288,7.094-4.319,11.447c1.445,3.196,4.593,5.089,7.888,5.089c1.192,0,2.403-0.248,3.56-0.771
	c29.39-13.289,48.381-42.714,48.381-74.961c0-45.344-36.889-82.232-82.232-82.232s-82.232,36.889-82.232,82.232
	c0,11.722,2.419,23.047,7.187,33.665C303.17,186.754,308.29,188.699,312.649,186.741z"/>
<g>
</g>
<g>
</g>
<g>
</g>
<g>
</g>
<g>
</g>
<g>
</g>
<g>
</g>
<g>
</g>
<g>
</g>
<g>
</g>
<g>
</g>
<g>
</g>
<g>
</g>
<g>
</g>
<g>
</g>
</svg>
