<?xml version="1.0" encoding="UTF-8"?>
<!DOCTYPE svg PUBLIC "-//W3C//DTD SVG 1.1//EN" "http://www.w3.org/Graphics/SVG/1.1/DTD/svg11.dtd">
<!-- Creator: CorelDRAW -->
<svg xmlns="http://www.w3.org/2000/svg" xml:space="preserve" width="6.82666in" height="6.82666in" style="shape-rendering:geometricPrecision; text-rendering:geometricPrecision; image-rendering:optimizeQuality; fill-rule:evenodd; clip-rule:evenodd"
viewBox="0 0 6.82666 6.82666"
 xmlns:xlink="http://www.w3.org/1999/xlink">
 <defs>
  <style type="text/css">
   <![CDATA[
    .fil2 {fill:none}
    .fil1 {fill:#00796B}
    .fil0 {fill:#26A69A}
    .fil4 {fill:#52666E;fill-rule:nonzero}
    .fil3 {fill:#657D87;fill-rule:nonzero}
    .fil5 {fill:#E0F7FA;fill-rule:nonzero}
   ]]>
  </style>
   <clipPath id="id0">
    <path d="M3.41333 -3.93701e-006c1.88513,0 3.41333,1.5282 3.41333,3.41333 0,1.88513 -1.5282,3.41333 -3.41333,3.41333 -1.88513,0 -3.41333,-1.5282 -3.41333,-3.41333 0,-1.88513 1.5282,-3.41333 3.41333,-3.41333z"/>
   </clipPath>
 </defs>
 <g id="Layer_x0020_1">
  <metadata id="CorelCorpID_0Corel-Layer"/>
  <path class="fil0" d="M3.41333 -3.93701e-006c1.88513,0 3.41333,1.5282 3.41333,3.41333 0,1.88513 -1.5282,3.41333 -3.41333,3.41333 -1.88513,0 -3.41333,-1.5282 -3.41333,-3.41333 0,-1.88513 1.5282,-3.41333 3.41333,-3.41333z"/>
  <g style="clip-path:url(#id0)">
   <g id="_357805688">
    <g>
     <polygon id="_4343189521" class="fil1" points="3.68798,1.88027 7.47424,5.66654 7.48275,5.6872 7.4912,5.70865 7.4996,5.73089 7.50794,5.7539 7.51622,5.77764 7.52444,5.80211 7.53261,5.82729 7.54072,5.85315 7.54878,5.87968 7.55678,5.90685 7.56472,5.93465 7.57261,5.96305 7.58045,5.99204 7.58823,6.0216 7.59596,6.0517 7.60364,6.08234 7.61127,6.11348 7.61884,6.14511 7.62636,6.17721 7.63383,6.20976 7.64124,6.24274 7.64861,6.27613 7.65593,6.30991 7.66319,6.34406 7.67041,6.37856 7.67757,6.41339 7.68469,6.44853 7.69176,6.48397 7.69878,6.51968 7.70575,6.55564 7.71267,6.59184 7.71955,6.62825 7.72075,6.63464 7.72194,6.64104 7.72314,6.64745 7.72433,6.65386 7.72553,6.66028 7.72672,6.6667 7.72791,6.67313 7.7291,6.67957 7.73029,6.686 7.73147,6.69245 7.73266,6.6989 7.73384,6.70535 7.73502,6.71181 7.7362,6.71827 7.73738,6.72474 7.73856,6.73121 7.73974,6.73769 7.74091,6.74417 7.74208,6.75065 7.74326,6.75714 7.74443,6.76363 7.74559,6.77013 7.74676,6.77663 7.74793,6.78313 7.74909,6.78963 7.75026,6.79614 7.75142,6.80266 7.75258,6.80917 7.75374,6.81569 7.7549,6.82221 7.75606,6.82874 7.75721,6.83526 3.97094,3.04899 3.96979,3.04246 3.96863,3.03594 3.96747,3.02942 3.96631,3.0229 3.96515,3.01639 3.96399,3.00987 3.96283,3.00336 3.96166,2.99685 3.9605,2.99035 3.95933,2.98385 3.95816,2.97736 3.95699,2.97087 3.95581,2.96438 3.95464,2.95789 3.95347,2.95141 3.95229,2.94494 3.95111,2.93847 3.94994,2.932 3.94876,2.92554 3.94757,2.91908 3.94639,2.91263 3.9452,2.90618 3.94402,2.89973 3.94283,2.8933 3.94164,2.88686 3.94045,2.88043 3.93926,2.87401 3.93807,2.86759 3.93687,2.86118 3.93568,2.85477 3.93448,2.84837 3.93328,2.84198 3.92641,2.80557 3.91948,2.76937 3.91251,2.73341 3.90549,2.6977 3.89842,2.66226 3.89131,2.62712 3.88414,2.59228 3.87693,2.55778 3.86966,2.52363 3.86234,2.48985 3.85498,2.45646 3.84756,2.42349 3.84009,2.39094 3.83257,2.35884 3.825,2.32721 3.81737,2.29607 3.8097,2.26543 3.80196,2.23533 3.79418,2.20577 3.78635,2.17678 3.77845,2.14837 3.77051,2.12058 3.76251,2.09341 3.75445,2.06688 3.74634,2.04102 3.73817,2.01584 3.72995,1.99137 3.72167,1.96763 3.71333,1.94462 3.70494,1.92238 3.69648,1.90093 "/>
     <polygon id="_434318760" class="fil1" points="3.97094,3.04899 7.75721,6.83526 7.75711,6.83547 3.97084,3.0492 "/>
     <polygon id="_434287056" class="fil1" points="3.97094,3.04926 7.75721,6.83553 7.76061,6.85483 7.764,6.87415 7.76739,6.89348 7.77076,6.91283 7.77411,6.9322 7.77746,6.95157 7.78079,6.97094 7.78411,6.99033 7.78742,7.0097 7.79072,7.02909 7.794,7.04846 7.79728,7.06783 7.80054,7.08719 7.8038,7.10653 7.80704,7.12586 7.81027,7.14517 7.81348,7.16446 7.81669,7.18372 7.81989,7.20296 7.82307,7.22218 7.82624,7.24135 7.82941,7.2605 7.83256,7.27961 7.8357,7.29867 7.83883,7.3177 7.84194,7.33668 7.84505,7.35561 7.84815,7.37449 7.85124,7.39332 7.85431,7.41209 7.85737,7.4308 7.86043,7.44945 4.07416,3.66318 4.07111,3.64453 4.06804,3.62582 4.06497,3.60705 4.06188,3.58822 4.05878,3.56934 4.05568,3.55041 4.05256,3.53143 4.04943,3.5124 4.04629,3.49333 4.04314,3.47423 4.03998,3.45508 4.0368,3.43591 4.03362,3.41669 4.03042,3.39745 4.02722,3.37819 4.024,3.3589 4.02077,3.33959 4.01753,3.32026 4.01428,3.30091 4.01101,3.28156 4.00774,3.26219 4.00445,3.24281 4.00115,3.22343 3.99784,3.20406 3.99452,3.18467 3.99119,3.1653 3.98784,3.14593 3.98449,3.12656 3.98112,3.10721 3.97774,3.08788 3.97435,3.06856 "/>
     <polygon id="_434287464" class="fil1" points="4.07416,3.66318 7.86043,7.44945 7.86241,7.46155 7.86439,7.47361 7.86635,7.48565 7.86832,7.49766 7.87028,7.50963 7.87224,7.52158 7.8742,7.53349 7.87615,7.54537 7.87809,7.55722 7.88003,7.56903 7.88197,7.58081 7.8839,7.59255 7.88583,7.60425 7.88775,7.61592 7.88967,7.62755 7.89158,7.63914 7.89349,7.65069 7.8954,7.6622 7.8973,7.67367 7.8992,7.68509 7.90109,7.69648 7.90298,7.70782 7.90487,7.71912 7.90675,7.73037 7.90862,7.74157 7.9105,7.75274 7.91236,7.76385 7.91423,7.77492 7.91609,7.78593 7.91794,7.7969 7.9198,7.80782 7.92165,7.81869 4.13538,4.03242 4.13353,4.02155 4.13168,4.01063 4.12982,3.99966 4.12796,3.98865 4.12609,3.97758 4.12423,3.96646 4.12235,3.9553 4.12048,3.9441 4.1186,3.93285 4.11671,3.92155 4.11482,3.9102 4.11293,3.89882 4.11103,3.88739 4.10913,3.87593 4.10722,3.86441 4.10531,3.85287 4.1034,3.84128 4.10148,3.82965 4.09956,3.81798 4.09763,3.80628 4.0957,3.79454 4.09376,3.78276 4.09182,3.77094 4.08988,3.7591 4.08793,3.74722 4.08598,3.73531 4.08402,3.72336 4.08206,3.71139 4.08009,3.69938 4.07812,3.68734 4.07614,3.67528 "/>
     <polygon id="_434286864" class="fil1" points="4.54774,2.20872 8.334,5.995 8.4037,6.16025 4.61744,2.37398 "/>
     <polygon id="_434287248" class="fil1" points="3.61828,1.71501 7.40454,5.50128 7.47424,5.66654 3.68798,1.88027 "/>
     <polygon id="_434287536" class="fil1" points="4.97505,3.46389 8.76131,7.25016 8.76267,7.25551 8.76401,7.26085 8.76535,7.2662 8.7667,7.27156 8.76804,7.27691 8.76937,7.28226 8.77071,7.28762 8.77204,7.29298 8.77337,7.29834 8.7747,7.3037 8.77602,7.30907 8.77734,7.31444 8.77866,7.31981 8.77998,7.32518 8.78129,7.33056 8.7826,7.33593 8.78391,7.34131 8.78522,7.34669 8.78652,7.35207 8.78782,7.35746 8.78912,7.36285 8.79042,7.36824 8.79171,7.37363 8.793,7.37902 8.79429,7.38442 8.79557,7.38981 8.79686,7.39522 8.79814,7.40062 8.79942,7.40602 8.8007,7.41143 8.80197,7.41683 8.80324,7.42224 5.01697,3.63597 5.0157,3.63056 5.01443,3.62515 5.01315,3.61975 5.01187,3.61435 5.01059,3.60894 5.00931,3.60354 5.00802,3.59815 5.00673,3.59275 5.00544,3.58736 5.00415,3.58196 5.00285,3.57658 5.00155,3.57119 5.00025,3.5658 4.99895,3.56042 4.99764,3.55504 4.99633,3.54966 4.99502,3.54429 4.99371,3.53891 4.99239,3.53354 4.99107,3.52817 4.98975,3.5228 4.98843,3.51743 4.9871,3.51207 4.98577,3.50671 4.98444,3.50135 4.98311,3.49599 4.98177,3.49063 4.98043,3.48528 4.97909,3.47993 4.97774,3.47458 4.9764,3.46924 "/>
     <polygon id="_434287512" class="fil1" points="5.01697,3.63597 8.80324,7.42224 8.80425,7.42654 8.80525,7.43084 8.80626,7.43514 8.80726,7.43944 8.80826,7.44374 8.80926,7.44804 8.81026,7.45235 8.81125,7.45665 8.81225,7.46096 8.81324,7.46527 8.81423,7.46957 8.81522,7.47389 8.81621,7.4782 8.8172,7.48251 8.81819,7.48683 8.81917,7.49115 8.82015,7.49546 8.82113,7.49978 8.82211,7.5041 8.82309,7.50843 8.82407,7.51275 8.82504,7.51707 8.82602,7.5214 8.82699,7.52573 8.82796,7.53006 8.82893,7.53439 8.8299,7.53872 8.83087,7.54305 8.83183,7.54738 8.8328,7.55172 8.83376,7.55605 8.83472,7.56039 5.04845,3.77412 5.04749,3.76978 5.04653,3.76544 5.04557,3.76111 5.0446,3.75678 5.04363,3.75244 5.04267,3.74811 5.04169,3.74378 5.04072,3.73946 5.03975,3.73513 5.03878,3.7308 5.0378,3.72648 5.03682,3.72215 5.03585,3.71783 5.03487,3.71351 5.03389,3.70919 5.0329,3.70487 5.03192,3.70056 5.03093,3.69624 5.02994,3.69193 5.02896,3.68761 5.02796,3.6833 5.02697,3.679 5.02598,3.67469 5.02498,3.67038 5.02399,3.66607 5.02299,3.66177 5.02199,3.65746 5.02099,3.65317 5.01999,3.64887 5.01898,3.64457 5.01798,3.64027 "/>
     <polygon id="_434287008" class="fil1" points="5.04845,3.77412 8.83472,7.56039 8.83463,7.56057 5.04836,3.7743 "/>
     <polygon id="_434287176" class="fil1" points="5.04845,3.77439 8.83472,7.56066 8.84299,7.59832 8.85115,7.63607 8.85921,7.67393 8.86716,7.71187 8.87501,7.74991 8.88276,7.78804 8.89041,7.82626 8.89796,7.86456 8.90541,7.90296 8.91276,7.94144 8.92003,7.98 8.9272,8.01865 8.93428,8.05739 8.94126,8.0962 8.94817,8.13509 8.95498,8.17405 8.96171,8.21309 8.96836,8.25222 8.97493,8.29141 8.98141,8.33067 8.98782,8.37001 8.99415,8.40941 9.0004,8.44889 9.00658,8.48843 9.01269,8.52803 9.01872,8.5677 9.02469,8.60743 9.03059,8.64722 9.03642,8.68707 9.04219,8.72698 9.04789,8.76695 9.05353,8.80698 5.26726,5.0207 5.26162,4.98068 5.25592,4.94071 5.25015,4.9008 5.24432,4.86095 5.23842,4.82116 5.23246,4.78143 5.22642,4.74176 5.22031,4.70215 5.21413,4.66261 5.20788,4.62314 5.20155,4.58374 5.19515,4.5444 5.18866,4.50513 5.18209,4.46594 5.17544,4.42682 5.16872,4.38778 5.1619,4.34881 5.155,4.30993 5.14801,4.27111 5.14093,4.23238 5.13376,4.19373 5.1265,4.15517 5.11914,4.11669 5.11169,4.07829 5.10414,4.03998 5.09649,4.00177 5.08874,3.96364 5.08089,3.9256 5.07294,3.88765 5.06489,3.8498 5.05672,3.81205 "/>
     <polygon id="_434287344" class="fil1" points="5.26726,5.0207 9.05353,8.80698 9.06627,8.89792 5.28,5.11165 "/>
     <polygon id="_434287896" class="fil1" points="5.28,5.11165 9.06627,8.89792 8.97446,8.89792 5.18819,5.11165 "/>
     <polygon id="_434288208" class="fil1" points="5.18819,5.11165 8.97446,8.89792 8.97146,8.89792 5.1852,5.11165 "/>
     <polygon id="_434288160" class="fil1" points="5.1852,5.11165 8.97146,8.89792 8.87352,8.89792 5.08726,5.11165 "/>
     <polygon id="_434287656" class="fil1" points="2.41015,2.72343 6.19641,6.5097 6.26115,6.61597 2.47489,2.8297 "/>
     <polygon id="_434287920" class="fil1" points="1.73941,5.11165 5.52567,8.89792 5.42773,8.89792 1.64146,5.11165 "/>
     <polygon id="_434287944" class="fil1" points="1.64146,5.11165 5.42773,8.89792 5.33293,8.89792 1.54666,5.11165 "/>
     <polygon id="_434288184" class="fil1" points="2.47489,2.8297 6.26115,6.61597 6.26854,6.62814 6.27589,6.64034 6.2832,6.65256 6.29047,6.66481 6.29769,6.67708 6.30488,6.68937 6.31203,6.70169 6.31914,6.71403 6.3262,6.72639 6.33324,6.73877 6.34022,6.75118 6.34718,6.76361 6.35409,6.77606 6.36096,6.78854 6.3678,6.80104 6.37459,6.81356 6.38135,6.8261 6.38807,6.83866 6.39476,6.85125 6.4014,6.86385 6.40801,6.87648 6.41457,6.88914 6.42111,6.90181 6.4276,6.91451 6.43406,6.92722 6.44048,6.93996 6.44687,6.95272 6.45322,6.9655 6.45953,6.9783 6.46581,6.99112 6.47205,7.00397 6.47825,7.01683 6.48198,7.0246 6.48569,7.03238 6.48939,7.04017 6.49308,7.04796 6.49676,7.05576 6.50042,7.06357 6.50407,7.07139 6.5077,7.07921 6.51133,7.08704 6.51494,7.09488 6.51854,7.10272 6.52212,7.11057 6.5257,7.11843 6.52926,7.1263 6.53281,7.13417 6.53634,7.14206 2.75007,3.35578 2.74654,3.3479 2.74299,3.34003 2.73943,3.33216 2.73585,3.3243 2.73227,3.31645 2.72867,3.30861 2.72506,3.30077 2.72144,3.29294 2.7178,3.28511 2.71415,3.2773 2.71049,3.26949 2.70681,3.26169 2.70313,3.2539 2.69943,3.24611 2.69571,3.23833 2.69198,3.23056 2.68578,3.2177 2.67954,3.20485 2.67326,3.19203 2.66695,3.17923 2.6606,3.16645 2.65422,3.15369 2.6478,3.14095 2.64133,3.12824 2.63484,3.11554 2.62831,3.10287 2.62174,3.09021 2.61513,3.07758 2.60849,3.06498 2.6018,3.05239 2.59508,3.03983 2.58833,3.02728 2.58153,3.01476 2.57469,3.00226 2.56782,2.98979 2.56091,2.97734 2.55396,2.96491 2.54697,2.9525 2.53994,2.94011 2.53287,2.92776 2.52576,2.91542 2.51861,2.9031 2.51143,2.89081 2.5042,2.87854 2.49693,2.86629 2.48962,2.85407 2.48228,2.84187 "/>
     <polygon id="_434287824" class="fil1" points="2.75007,3.35578 6.53634,7.14206 6.53615,7.14233 2.74989,3.35606 "/>
     <polygon id="_434288328" class="fil1" points="2.75007,3.35605 6.53634,7.14232 6.53963,7.14969 6.54291,7.15707 6.54619,7.16445 6.54944,7.17183 6.55269,7.17923 6.55593,7.18663 6.55916,7.19403 6.56238,7.20144 6.56558,7.20886 6.56878,7.21628 6.57196,7.22371 6.57514,7.23115 6.57831,7.23859 6.58146,7.24604 6.5846,7.25349 6.58774,7.26095 2.80147,3.47468 2.79833,3.46722 2.79519,3.45977 2.79204,3.45232 2.78887,3.44488 2.7857,3.43744 2.78251,3.43001 2.77931,3.42259 2.77611,3.41517 2.77289,3.40776 2.76967,3.40035 2.76643,3.39296 2.76318,3.38556 2.75992,3.37818 2.75665,3.3708 2.75337,3.36342 "/>
     <polygon id="_434288088" class="fil1" points="2.80147,3.47468 6.58774,7.26095 6.59259,7.27257 6.59742,7.2842 6.60222,7.29584 6.607,7.3075 6.61175,7.31919 6.61648,7.33088 6.62119,7.34259 6.62588,7.35432 6.63054,7.36607 6.63517,7.37783 6.63979,7.3896 6.64438,7.4014 6.64894,7.4132 6.65349,7.42503 6.65801,7.43687 6.66251,7.44873 6.66699,7.4606 6.67144,7.47249 6.67587,7.48439 6.68028,7.49631 6.68467,7.50824 6.68903,7.52019 6.69338,7.53215 6.6977,7.54413 6.702,7.55613 6.70628,7.56814 6.71053,7.58016 6.71476,7.5922 6.71898,7.60425 6.72317,7.61632 6.72734,7.6284 6.73149,7.6405 2.94522,3.85423 2.94107,3.84213 2.9369,3.83005 2.93271,3.81798 2.9285,3.80593 2.92426,3.79389 2.92001,3.78187 2.91573,3.76986 2.91143,3.75786 2.90711,3.74588 2.90276,3.73392 2.8984,3.72197 2.89402,3.71004 2.88961,3.69812 2.88517,3.68622 2.88072,3.67433 2.87624,3.66246 2.87174,3.6506 2.86722,3.63876 2.86268,3.62693 2.85811,3.61513 2.85352,3.60333 2.84891,3.59156 2.84427,3.5798 2.83961,3.56805 2.83493,3.55632 2.83022,3.54461 2.82548,3.53291 2.82073,3.52123 2.81595,3.50957 2.81115,3.49793 2.80632,3.4863 "/>
     <polygon id="_434288760" class="fil1" points="5.08726,5.11165 8.87352,8.89792 5.52567,8.89792 1.73941,5.11165 "/>
     <polygon id="_434289072" class="fil1" points="4.61744,2.37398 8.4037,6.16025 8.41716,6.19242 8.43046,6.22472 8.44359,6.25716 8.45657,6.28973 8.46939,6.32243 8.48206,6.35525 8.49457,6.3882 8.50693,6.42129 8.51913,6.45449 8.53119,6.48782 8.54309,6.52128 8.55485,6.55485 8.56647,6.58855 8.57794,6.62237 8.58926,6.6563 8.60045,6.69035 8.61149,6.72452 8.6224,6.7588 8.63317,6.7932 8.6438,6.82771 8.6543,6.86233 8.66467,6.89706 8.6749,6.9319 8.685,6.96685 8.69498,7.0019 8.70482,7.03706 8.71455,7.07232 8.72414,7.10769 8.73362,7.14316 8.74297,7.17872 8.7522,7.21439 8.76131,7.25016 4.97505,3.46389 4.96593,3.42812 4.9567,3.39245 4.94735,3.35689 4.93787,3.32142 4.92828,3.28605 4.91856,3.25079 4.90871,3.21563 4.89873,3.18057 4.88863,3.14563 4.8784,3.11079 4.86803,3.07606 4.85753,3.04144 4.8469,3.00693 4.83613,2.97253 4.82522,2.93825 4.81418,2.90408 4.803,2.87003 4.79167,2.83609 4.7802,2.80228 4.76859,2.76858 4.75683,2.735 4.74492,2.70155 4.73286,2.66822 4.72066,2.63502 4.7083,2.60193 4.69579,2.56898 4.68313,2.53615 4.67031,2.50346 4.65733,2.47089 4.64419,2.43845 4.63089,2.40615 "/>
    </g>
    <path id="_357805904" class="fil1" d="M3.68798 1.88027c0.0910787,0.215957 0.172213,0.572264 0.245303,0.961705 0.0127992,0.068185 0.0253465,0.137378 0.0376614,0.207016l-0.000102362 0.000204724 0.000102362 6.29921e-005c0.036378,0.20574 0.0707008,0.415319 0.10322,0.613921 0.0211457,0.129157 0.0415236,0.253587 0.0612165,0.369236 0.0136575,-0.0850669 0.0277402,-0.17578 0.0422795,-0.269453 0.0177677,-0.114445 0.0362047,-0.233209 0.0553858,-0.351567l0.000188976 1.1811e-005 -0.000188976 -0.000283465c0.00620866,-0.0382953 0.0124921,-0.0765394 0.0188543,-0.114591 0.0642323,-0.383961 0.136665,-0.747291 0.219906,-0.925366l0.0759331 -0.162445 0.0697008 0.165256c0.144417,0.342421 0.261028,0.707874 0.35761,1.08991 0.0144094,0.057 0.028378,0.114366 0.0419252,0.172083 0.010748,0.045815 0.0212362,0.091874 0.0314803,0.138146l-9.44882e-005 0.000185039 9.44882e-005 8.66142e-005c0.0887992,0.401169 0.158965,0.819102 0.218807,1.24631l0.0127402 0.0909449 -0.0918071 0 -0.00299606 0 -0.0979409 0 -3.34785 0 -0.0979409 0 -0.0948031 0 0.0160472 -0.0934449c0.0691417,-0.402598 0.157815,-0.793008 0.281827,-1.16132 0.0248031,-0.0736772 0.0510157,-0.146417 0.0787441,-0.21815l9.84252e-005 -6.69291e-005 -9.84252e-005 -0.000200787c0.0335472,-0.0867835 0.0693189,-0.172091 0.107547,-0.25576 0.0890118,-0.194827 0.191307,-0.380819 0.309673,-0.556134l0.0696457 -0.103142 0.0647402 0.106268c0.0790354,0.12974 0.151106,0.263535 0.217098,0.400862 0.0199094,0.0414291 0.0392638,0.0831732 0.0580906,0.125224l-0.000188976 0.000279528 0.000188976 -1.1811e-005c0.0175827,0.0392835 0.0347126,0.0788268 0.0513937,0.11863 0.0518819,0.12378 0.0995984,0.250437 0.143756,0.379547 0.0575394,-0.305862 0.12448,-0.60289 0.203559,-0.888492 0.00915354,-0.0330669 0.0184764,-0.0659764 0.0279646,-0.0987283l0.000161417 -2.75591e-005 -0.000161417 -0.000240157c0.0181969,-0.0628425 0.0370118,-0.12511 0.0564724,-0.186772 0.0886693,-0.280917 0.190764,-0.549303 0.309118,-0.802508l0.075937 -0.162449 0.0697008 0.16526z"/>
   </g>
  </g>
  <path class="fil2" d="M3.41333 -3.93701e-006c1.88513,0 3.41333,1.5282 3.41333,3.41333 0,1.88513 -1.5282,3.41333 -3.41333,3.41333 -1.88513,0 -3.41333,-1.5282 -3.41333,-3.41333 0,-1.88513 1.5282,-3.41333 3.41333,-3.41333z"/>
  <path class="fil3" d="M2.75007 3.35605c0.0175827,0.0392835 0.0347126,0.0788268 0.0513937,0.11863 0.0518819,0.12378 0.0995984,0.250437 0.143756,0.379547 0.0575394,-0.305862 0.12448,-0.60289 0.203559,-0.888492 0.00915354,-0.0330669 0.0184764,-0.0659764 0.0279646,-0.0987283l0.396591 -0.0635787 0.397602 0.245831c0.036378,0.20574 0.0707008,0.415319 0.10322,0.613921 0.0211457,0.129157 0.0415236,0.253587 0.0612165,0.369236 0.0136575,-0.0850669 0.0277402,-0.17578 0.0422795,-0.269453 0.0177677,-0.114445 0.0362047,-0.233209 0.0553858,-0.351567l0.460354 0.0320669 0.355055 0.330925c0.0887992,0.401169 0.158965,0.819102 0.218807,1.24631l0.0127402 0.0909449 -0.0918071 0 -3.54673 0 -0.0948031 0 0.0160472 -0.0934449c0.0691417,-0.402598 0.157815,-0.793008 0.281827,-1.16132 0.0248031,-0.0736772 0.0510157,-0.146417 0.0787441,-0.21815l0.370787 -0.250382 0.456008 -0.0322992z"/>
  <path class="fil4" d="M5.08726 5.11165l0.0979409 0 0.0948031 0 -0.0160472 -0.0934449c-0.0691417,-0.402598 -0.157815,-0.793008 -0.281827,-1.16132 -0.0248031,-0.0736772 -0.0510157,-0.146417 -0.0787441,-0.21815l-0.370787 -0.250382 -0.00253937 -0.000177165c-0.0103268,0.189429 0.00519685,0.397264 0.0501339,0.615319 0.0886417,0.430154 0.27522,0.820618 0.507067,1.10816z"/>
  <path class="fil4" d="M1.73941 5.11165l-0.0979409 0 -0.0948031 0 0.0160472 -0.0934449c0.0691417,-0.402598 0.157815,-0.793008 0.281827,-1.16132 0.0248031,-0.0736772 0.0510157,-0.146417 0.0787441,-0.21815l0.370787 -0.250382 0.00253937 -0.000177165c0.0103268,0.189429 -0.00519685,0.397264 -0.0501339,0.615319 -0.0886417,0.430154 -0.27522,0.820618 -0.507067,1.10816z"/>
  <path class="fil5" d="M3.17675 2.86674c0.0181969,-0.0628425 0.0370118,-0.12511 0.0564724,-0.186772 0.0886693,-0.280917 0.190764,-0.549303 0.309118,-0.802508l0.075937 -0.162449 0.0697008 0.16526c0.0910787,0.215957 0.172213,0.572264 0.245303,0.961705 0.0127992,0.068185 0.0253465,0.137378 0.0376614,0.207016l-0.0711457 0.142287 -0.320016 -0.32002 -0.240012 0.240012 -0.16302 -0.244531z"/>
  <path class="fil5" d="M4.23304 3.41113c0.00620866,-0.0382953 0.0124921,-0.0765394 0.0188543,-0.114591 0.0642323,-0.383961 0.136665,-0.747291 0.219906,-0.925366l0.0759331 -0.162445 0.0697008 0.165256c0.144417,0.342421 0.261028,0.707874 0.35761,1.08991 0.0144094,0.057 0.028378,0.114366 0.0419252,0.172083 0.010748,0.045815 0.0212362,0.091874 0.0314803,0.138146l-0.0285984 0.0571929 -0.320016 -0.32002 -0.240012 0.240012 -0.226783 -0.340177z"/>
  <path class="fil5" d="M2.47489 2.8297c0.0790354,0.12974 0.151106,0.263535 0.217098,0.400862 0.0199094,0.0414291 0.0392638,0.0831732 0.0580906,0.125224l-0.210346 0.31552 -0.240012 -0.240012 -0.320016 0.320016 -0.0564213 -0.112843c0.0335472,-0.0867835 0.0693189,-0.172091 0.107547,-0.25576 0.0890118,-0.194827 0.191307,-0.380819 0.309673,-0.556134l0.0696457 -0.103142 0.0647402 0.106268z"/>
 </g>
</svg>
