<?xml version="1.0" encoding="utf-8"?>
<!-- Generator: Adobe Illustrator 24.3.0, SVG Export Plug-In . SVG Version: 6.00 Build 0)  -->
<svg version="1.1" id="Layer_1" xmlns="http://www.w3.org/2000/svg" xmlns:xlink="http://www.w3.org/1999/xlink" x="0px" y="0px"
	 viewBox="0 0 200 200" enable-background="new 0 0 200 200" xml:space="preserve">
<path fill="#282828" d="M67.932,98.898c1.1,0,2-0.895,2-2c0-1.105-0.9-2-2-2c-1.11,0-2,0.895-2,2
	C65.932,98.003,66.822,98.898,67.932,98.898z"/>
<path fill="#282828" d="M67.932,100.898c2.2,0,4-1.791,4-4s-1.8-4-4-4c-2.21,0-4,1.791-4,4S65.722,100.898,67.932,100.898z"/>
<path fill="#282828" d="M96.732,120.498l9.1-5.2c1.8-1.1,1.8-3.7,0-4.7l-9.1-5.2c-1.8-1.1-4.1,0.3-4.1,2.4v10.5
	C92.632,120.298,94.932,121.598,96.732,120.498z"/>
<path fill="#282828" d="M148.332,145.698c0,1.1-0.9,2-2,2h-92c-1.1,0-2-0.9-2-2v-64c0-1.1,0.9-2,2-2h92c1.1,0,2,0.9,2,2V145.698z
	 M56.332,143.698h88v-60h-88V143.698z"/>
<path fill="#282828" d="M124.332,115.698c0-0.6-0.1-1.2-0.1-1.9c0-0.7-0.2-58-0.2-58c0-1.1-0.7-2-1.8-2c-1.1,0-1.9,0.9-1.9,2v44.6
	c-5-6.4-11.9-10.7-20.2-10.7c-13.3,0-24.2,10.8-24.2,24.1c0,13.3,10.8,24.1,24,24.1c12.6,0,23.2-9.8,24.2-22.1
	C124.132,115.798,124.332,115.798,124.332,115.698z M99.932,133.798c-11,0-19.9-8.9-19.9-19.9s8.9-19.9,19.9-19.9
	s19.9,8.9,19.9,19.9S110.832,133.798,99.932,133.798z"/>
<path fill="#282828" d="M148.332,69.698c0,1.1-0.9,2-2,2h-24c-1.1,0-2-0.9-2-2v-16c0-1.1,0.9-2,2-2h24c1.1,0,2,0.9,2,2V69.698z
	 M124.332,67.698h20v-12h-20V67.698z"/>
</svg>
