<?xml version="1.0" encoding="UTF-8"?>
<!DOCTYPE svg PUBLIC "-//W3C//DTD SVG 1.1//EN" "http://www.w3.org/Graphics/SVG/1.1/DTD/svg11.dtd">
<!-- Creator: CorelDRAW -->
<svg xmlns="http://www.w3.org/2000/svg" xml:space="preserve" width="6.82666in" height="6.82666in" style="shape-rendering:geometricPrecision; text-rendering:geometricPrecision; image-rendering:optimizeQuality; fill-rule:evenodd; clip-rule:evenodd"
viewBox="0 0 6.82666 6.82666"
 xmlns:xlink="http://www.w3.org/1999/xlink">
 <defs>
  <style type="text/css">
   <![CDATA[
    .fil0 {fill:#009688}
    .fil1 {fill:#FFFFFE;fill-rule:nonzero}
   ]]>
  </style>
 </defs>
 <g id="Layer_x0020_1">
  <metadata id="CorelCorpID_0Corel-Layer"/>
  <g id="_476066000">
   <rect id="_476061584" class="fil0" width="6.82666" height="6.82666"/>
   <rect id="_476061296" class="fil0" x="0.853331" y="0.853331" width="5.12" height="5.12"/>
  </g>
  <path class="fil1" d="M0.853331 2.23999l5.12 0c0.0589094,0 0.106669,0.0477598 0.106669,0.106669l0 2.83714c0,0.0589094 -0.0477598,0.106669 -0.106669,0.106669l-5.12 0c-0.0589094,0 -0.106669,-0.0477598 -0.106669,-0.106669l0 -2.83714c0,-0.0589094 0.0477598,-0.106669 0.106669,-0.106669zm5.01333 0.213339l-4.90666 0 0 2.6238 4.90666 0 0 -2.6238z"/>
  <path class="fil1" d="M1.06667 2.34666c0,0.0589094 0.0477598,0.106669 0.106669,0.106669 0.0589094,0 0.106669,-0.0477598 0.106669,-0.106669l0 -0.319996 0.639992 0 0 0.319996c0,0.0589094 0.0477598,0.106669 0.106669,0.106669 0.0589094,0 0.106669,-0.0477598 0.106669,-0.106669l0 -0.426665c0,-0.0589094 -0.0477598,-0.106669 -0.106669,-0.106669l-0.853331 0c-0.0589094,0 -0.106669,0.0477598 -0.106669,0.106669l0 0.426665z"/>
  <path class="fil1" d="M4.78219 2.61745l0.791524 0c0.0589094,0 0.106669,0.0477598 0.106669,0.106669l0 0.506469c0,0.0589094 -0.0477598,0.106669 -0.106669,0.106669l-0.791524 0c-0.0589094,0 -0.106669,-0.0477598 -0.106669,-0.106669l0 -0.506469c0,-0.0589094 0.0477598,-0.106669 0.106669,-0.106669zm0.684854 0.213339l-0.578185 0 0 0.29313 0.578185 0 0 -0.29313z"/>
  <g id="_476062256">
   <path id="_476064920" class="fil1" d="M3.41333 2.69856c0.294539,0 0.561209,0.119398 0.75424,0.312429 0.193031,0.193031 0.312429,0.459705 0.312429,0.75424 0,0.294539 -0.119398,0.561209 -0.312429,0.75424 -0.193031,0.193031 -0.459701,0.312429 -0.75424,0.312429 -0.294539,0 -0.561209,-0.119398 -0.75424,-0.312429 -0.193031,-0.193031 -0.312429,-0.459701 -0.312429,-0.75424 0,-0.294535 0.119398,-0.561209 0.312429,-0.75424 0.193031,-0.193031 0.459701,-0.312429 0.75424,-0.312429zm0.603406 0.463264c-0.154413,-0.154413 -0.367752,-0.249925 -0.603406,-0.249925 -0.235654,0 -0.448992,0.0955118 -0.603406,0.249925 -0.154413,0.154413 -0.249925,0.367756 -0.249925,0.603406 0,0.235654 0.0955118,0.448992 0.249925,0.603406 0.154413,0.154413 0.367752,0.249925 0.603406,0.249925 0.235654,0 0.448992,-0.0955118 0.603406,-0.249925 0.154413,-0.154413 0.249925,-0.367752 0.249925,-0.603406 0,-0.23565 -0.0955118,-0.448992 -0.249925,-0.603406z"/>
   <path id="_476062832" class="fil1" d="M3.77938 3.51812c0.0416496,-0.0416496 0.0416496,-0.109185 0,-0.150835 -0.0416496,-0.0416496 -0.109185,-0.0416496 -0.150835,0l-0.503961 0.503961c-0.0416496,0.0416496 -0.0416496,0.109185 0,0.150835 0.0416496,0.0416496 0.109185,0.0416496 0.150835,0l0.503961 -0.503961z"/>
   <path id="_476060984" class="fil1" d="M3.41333 3.09539c0.184961,0 0.352425,0.0749843 0.473646,0.196201 0.12122,0.121224 0.196201,0.288689 0.196201,0.473646 0,0.184961 -0.0749843,0.352425 -0.196201,0.473646 -0.12122,0.121217 -0.288685,0.196201 -0.473646,0.196201 -0.184961,0 -0.352425,-0.0749843 -0.473646,-0.196201 -0.121217,-0.12122 -0.196201,-0.288685 -0.196201,-0.473646 0,-0.184957 0.0749803,-0.352421 0.196201,-0.473646 0.12122,-0.121217 0.288685,-0.196201 0.473646,-0.196201zm0.322811 0.347035c-0.0826063,-0.0826024 -0.196736,-0.133697 -0.322811,-0.133697 -0.126075,0 -0.240205,0.0510945 -0.322811,0.133697 -0.0826024,0.0826063 -0.133697,0.19674 -0.133697,0.322811 0,0.126075 0.0510945,0.240205 0.133697,0.322811 0.0826063,0.0826024 0.196736,0.133697 0.322811,0.133697 0.126075,0 0.240205,-0.0510945 0.322811,-0.133697 0.0826024,-0.0826063 0.133697,-0.196736 0.133697,-0.322811 0,-0.126071 -0.0510945,-0.240205 -0.133697,-0.322811z"/>
  </g>
 </g>
</svg>
